<svg xmlns="http://www.w3.org/2000/svg">
  <symbol id="icon-play" viewBox="0 0 24 24"><path d="M8 5.5v13l10-6.5z" fill="currentColor" stroke="none"/></symbol>
  <symbol id="icon-home" viewBox="0 0 24 24"><path d="M3.5 10.5 12 3l8.5 7.5v9H15v-6H9v6H3.5z"/></symbol>
  <symbol id="icon-people" viewBox="0 0 24 24"><path d="M8.2 11.2a3.2 3.2 0 1 0 0-6.4 3.2 3.2 0 0 0 0 6.4Zm7.7-1.2a2.6 2.6 0 1 0 0-5.2 2.6 2.6 0 0 0 0 5.2ZM2.8 19.2c.3-3.7 2.1-5.6 5.4-5.6s5.1 1.9 5.4 5.6m.5-6.6c3.9-.2 6 2 6.3 5.7"/></symbol>
  <symbol id="icon-cards" viewBox="0 0 24 24"><rect x="5" y="3.5" width="12.5" height="17" rx="2"/><path d="m9.5 8 3-1.8L15.5 8l-3 2zm8-1.8 2.1.6a2 2 0 0 1 1.4 2.5l-2.6 9"/></symbol>
  <symbol id="icon-store" viewBox="0 0 24 24"><path d="M4 10v10h16V10M3 9l2-5h14l2 5c0 1.7-1 3-2.5 3S16 10.7 16 9c0 1.7-1 3-2.5 3S11 10.7 11 9c0 1.7-1 3-2.5 3S6 10.7 6 9c0 1.7-.7 3-2 3"/><path d="M9 20v-5h6v5"/></symbol>
  <symbol id="icon-settings" viewBox="0 0 24 24"><circle cx="12" cy="12" r="3"/><path d="M12 2.8v2m0 14.4v2M2.8 12h2m14.4 0h2M5.5 5.5l1.4 1.4m10.2 10.2 1.4 1.4m0-13-1.4 1.4M6.9 17.1l-1.4 1.4"/></symbol>
  <symbol id="icon-invite" viewBox="0 0 24 24"><path d="M12 20H5a2 2 0 0 1-2-2V7a2 2 0 0 1 2-2h8"/><path d="m3.5 7 8 6 3-2.2M18 4v8m-4-4h8"/></symbol>
  <symbol id="icon-back" viewBox="0 0 24 24"><path d="M19 12H5m6-6-6 6 6 6"/></symbol>
  <symbol id="icon-history" viewBox="0 0 24 24"><path d="M4 7.5V3m0 4.5h4.5M5 7a8.5 8.5 0 1 1-1.3 8.1M12 7.5V12l3 2"/></symbol>
  <symbol id="icon-sound" viewBox="0 0 24 24"><path d="M4 14.5h4l5 4v-13l-5 4H4zm12-5a4 4 0 0 1 0 5m2.3-7.3a7 7 0 0 1 0 9.6"/></symbol>
  <symbol id="icon-mute" viewBox="0 0 24 24"><path d="M4 14.5h4l5 4v-13l-5 4H4m4.5 3.5 10 10m0-10-10 10"/></symbol>
  <symbol id="icon-report" viewBox="0 0 24 24"><path d="M6 21V4m0 1h11l-2 4 2 4H6"/><path d="M4 21h5"/></symbol>
  <symbol id="icon-refresh" viewBox="0 0 24 24"><path d="M20 7v5h-5M4 17v-5h5"/><path d="M6.1 8a7 7 0 0 1 11.6-1.1L20 12M4 12l2.3 5.1A7 7 0 0 0 18 16"/></symbol>
  <symbol id="icon-close" viewBox="0 0 24 24"><path d="m6 6 12 12M18 6 6 18"/></symbol>
  <symbol id="icon-check" viewBox="0 0 24 24"><path d="m5 12 4 4L19 6"/></symbol>
  <symbol id="icon-arrow" viewBox="0 0 24 24"><path d="M5 12h14m-6-6 6 6-6 6"/></symbol>
  <symbol id="icon-plus" viewBox="0 0 24 24"><path d="M12 4v16M4 12h16"/></symbol>
  <symbol id="icon-profile" viewBox="0 0 24 24"><circle cx="12" cy="8" r="4"/><path d="M4.5 21c.5-5 3-7.5 7.5-7.5s7 2.5 7.5 7.5"/></symbol>
  <symbol id="icon-book" viewBox="0 0 24 24"><path d="M4 5.5A3.5 3.5 0 0 1 7.5 2H12v18H7.5A3.5 3.5 0 0 0 4 23zM20 5.5A3.5 3.5 0 0 0 16.5 2H12v18h4.5A3.5 3.5 0 0 1 20 23z"/></symbol>
  <symbol id="icon-online" viewBox="0 0 24 24"><circle cx="12" cy="12" r="9"/><path d="M3 12h18M12 3c3.6 4.6 3.6 13.4 0 18M12 3c-3.6 4.6-3.6 13.4 0 18"/></symbol>
  <symbol id="icon-loading" viewBox="0 0 24 24"><path d="M20 12a8 8 0 1 1-2.3-5.7"/><path d="M20 4v6h-6"/></symbol>
  <symbol id="icon-info" viewBox="0 0 24 24"><circle cx="12" cy="12" r="9"/><path d="M12 10v6m0-9h.01"/></symbol>
  <symbol id="icon-tamashi" viewBox="0 0 24 24"><path d="M12 3c3.7 3.2 6 6.4 6 10a6 6 0 0 1-12 0c0-3.6 2.3-6.8 6-10Z"/><path d="M9.5 14.5c1.1 1.3 2.2 1.7 4 1.2"/></symbol>
</svg>
